<?xml version="1.0" standalone="no"?>
<!DOCTYPE svg PUBLIC "-//W3C//DTD SVG 20010904//EN"
 "http://www.w3.org/TR/2001/REC-SVG-20010904/DTD/svg10.dtd">
<svg version="1.0" xmlns="http://www.w3.org/2000/svg"
 width="288.000000pt" height="200.000000pt" viewBox="0 0 288.000000 200.000000"
 preserveAspectRatio="xMidYMid meet">

<g transform="translate(0.000000,200.000000) scale(0.100000,-0.100000)"
fill="#a669ce" stroke="none">
<path d="M416 1339 c-167 -41 -310 -212 -338 -406 -20 -142 20 -247 116 -300
45 -25 61 -28 137 -28 77 0 92 3 147 32 72 37 75 32 36 -54 -27 -63 -69 -113
-93 -113 -8 0 -34 7 -58 16 -48 19 -70 14 -82 -18 -18 -47 29 -78 117 -78 132
0 218 117 242 331 17 152 -8 199 -106 199 -57 0 -80 -16 -69 -49 6 -20 19 -25
70 -33 16 -3 20 -11 20 -43 0 -39 -2 -41 -60 -70 -111 -55 -235 -44 -288 27
-24 33 -32 123 -18 200 33 165 145 299 272 323 66 12 100 -44 76 -125 -11 -35
12 -65 41 -56 71 23 66 174 -8 228 -31 22 -102 30 -154 17z"/>
<path d="M800 1042 c-43 -21 -76 -69 -96 -140 -23 -79 -12 -136 36 -184 35
-35 42 -38 97 -38 43 0 73 7 110 25 l51 26 26 -26 c20 -20 35 -25 76 -25 43 0
55 5 90 36 64 58 87 174 48 247 -13 25 3 21 41 -11 32 -26 33 -30 38 -117 6
-117 17 -153 49 -161 31 -8 75 30 106 90 l20 39 19 -29 c21 -32 40 -42 85 -43
19 -1 34 -7 38 -16 3 -9 21 -22 40 -30 39 -17 79 -9 127 26 26 18 33 19 40 8
5 -8 9 -17 9 -22 0 -4 12 -12 26 -18 33 -12 83 3 109 31 23 26 33 25 37 -2 2
-18 11 -24 35 -26 32 -3 33 -2 91 114 l59 117 -1 -100 c-1 -71 3 -105 13 -116
18 -22 67 -21 111 2 33 18 35 18 62 -2 38 -28 89 -25 140 8 32 22 42 24 49 13
5 -7 9 -16 9 -21 0 -4 12 -12 26 -18 38 -14 83 3 128 49 34 36 36 41 30 82
l-7 43 -25 -29 c-29 -33 -71 -64 -89 -64 -18 0 -16 55 3 158 8 46 13 90 10 98
-3 8 -18 14 -32 14 -15 0 -36 7 -46 17 -16 14 -24 14 -59 4 -74 -22 -146 -115
-169 -217 -11 -49 -32 -73 -62 -74 -28 0 -33 45 -16 149 20 128 6 165 -55 142
-19 -7 -36 -32 -65 -91 -21 -44 -40 -78 -43 -75 -3 2 -1 36 4 75 9 61 8 74 -6
87 -13 13 -21 14 -40 6 -26 -12 -39 -51 -53 -158 -4 -27 -16 -61 -26 -75 -22
-28 -67 -60 -85 -60 -18 0 -16 55 3 158 8 46 13 90 10 98 -3 8 -18 14 -32 14
-15 0 -36 7 -46 17 -44 39 -156 -37 -204 -140 -13 -29 -24 -60 -24 -69 0 -12
-8 -18 -23 -18 -53 0 -60 43 -21 130 33 74 30 104 -12 108 -18 2 -36 -3 -43
-12 -7 -8 -37 -74 -67 -148 l-55 -133 6 142 c4 94 3 143 -4 147 -6 4 -26 4
-45 1 -25 -5 -36 -13 -40 -30 l-6 -24 -50 26 c-59 31 -138 35 -187 9 -61 -31
-102 -112 -103 -202 0 -28 -5 -34 -49 -53 -61 -26 -93 -27 -114 -3 -16 17 -15
19 18 31 65 23 135 104 135 156 0 32 -30 73 -61 84 -43 15 -58 14 -99 -7z m78
-64 c21 -21 13 -49 -22 -84 -42 -42 -81 -47 -72 -9 12 49 25 73 48 89 27 19
31 19 46 4z m962 8 c0 -3 -9 -44 -21 -93 -29 -124 -61 -171 -95 -142 -41 34
14 190 78 226 24 13 38 16 38 9z m740 0 c0 -3 -9 -44 -21 -93 -29 -124 -61
-171 -95 -142 -41 34 14 190 78 226 24 13 38 16 38 9z m-1409 -28 c18 -33 13
-111 -10 -163 -17 -39 -24 -45 -50 -45 -35 0 -41 8 -48 63 -6 53 2 94 27 135
24 39 63 44 81 10z"/>
</g>
</svg>
